HIERARCHY
ROOT Hips
{
 OFFSET 0.000000 0.000000 0.000000
 CHANNELS 6 Xposition Yposition Zposition Yrotation Xrotation Zrotation
 JOINT Chest
 {
  OFFSET 0.000000 9.585900 0.002600
  CHANNELS 3 Yrotation Xrotation Zrotation
  JOINT Chest2
  {
   OFFSET 0.000000 9.601200 -0.005300
   CHANNELS 3 Yrotation Xrotation Zrotation
   JOINT Chest3
   {
    OFFSET 0.000000 9.561800 0.000000
    CHANNELS 3 Yrotation Xrotation Zrotation
    JOINT Chest4
    {
     OFFSET 0.000000 9.552100 0.000000
     CHANNELS 3 Yrotation Xrotation Zrotation
     JOINT Neck
     {
      OFFSET 0.000000 14.453000 0.000000
      CHANNELS 3 Yrotation Xrotation Zrotation
      JOINT Head
      {
       OFFSET 0.000000 8.936500 -0.011300
       CHANNELS 3 Yrotation Xrotation Zrotation
       End Site
       {
        OFFSET 0.000000 17.073600 -0.006000
       }
      }
     }
     JOINT RightCollar
     {
      OFFSET -2.921100 9.558500 0.000000
      CHANNELS 3 Yrotation Xrotation Zrotation
      JOINT RightShoulder
      {
       OFFSET -13.519700 0.000000 0.000000
       CHANNELS 3 Yrotation Xrotation Zrotation
       JOINT RightElbow
       {
        OFFSET 0.000000 -29.696600 0.000000
        CHANNELS 3 Yrotation Xrotation Zrotation
        JOINT RightWrist
        {
         OFFSET 0.000000 -24.004700 0.000000
         CHANNELS 3 Yrotation Xrotation Zrotation
         End Site
         {
          OFFSET 0.000000 -17.728500 0.000000
         }
        }
       }
      }
     }
     JOINT LeftCollar
     {
      OFFSET 2.921100 9.558500 0.000000
      CHANNELS 3 Yrotation Xrotation Zrotation
      JOINT LeftShoulder
      {
       OFFSET 13.519700 0.000000 0.000000
       CHANNELS 3 Yrotation Xrotation Zrotation
       JOINT LeftElbow
       {
        OFFSET 0.000000 -29.696600 0.000000
        CHANNELS 3 Yrotation Xrotation Zrotation
        JOINT LeftWrist
        {
         OFFSET 0.000000 -24.004700 0.000000
         CHANNELS 3 Yrotation Xrotation Zrotation
         End Site
         {
          OFFSET 0.000000 -17.728500 0.000000
         }
        }
       }
      }
     }
    }
   }
  }
 }
 JOINT RightHip
 {
  OFFSET -7.771700 -0.012900 -0.001300
  CHANNELS 3 Yrotation Xrotation Zrotation
  JOINT RightKnee
  {
   OFFSET 0.000000 -40.869800 0.001200
   CHANNELS 3 Yrotation Xrotation Zrotation
   JOINT RightAnkle
   {
    OFFSET 0.000000 -39.717900 0.002100
    CHANNELS 3 Yrotation Xrotation Zrotation
    JOINT RightToe
    {
     OFFSET 0.000000 -4.965400 11.033500
     CHANNELS 3 Yrotation Xrotation Zrotation
     End Site
     {
      OFFSET 0.000000 -1.423100 5.872300
     }
    }
   }
  }
 }
 JOINT LeftHip
 {
  OFFSET 7.771700 -0.012900 -0.001300
  CHANNELS 3 Yrotation Xrotation Zrotation
  JOINT LeftKnee
  {
   OFFSET 0.000000 -40.869800 0.001200
   CHANNELS 3 Yrotation Xrotation Zrotation
   JOINT LeftAnkle
   {
    OFFSET 0.000000 -39.717900 0.002100
    CHANNELS 3 Yrotation Xrotation Zrotation
    JOINT LeftToe
    {
     OFFSET 0.000000 -4.965400 11.033500
     CHANNELS 3 Yrotation Xrotation Zrotation
     End Site
     {
      OFFSET 0.000000 -1.423100 5.872300
     }
    }
   }
  }
 }
}
MOTION
Frames: 5
Frame Time: 0.008333
-67.080936 63.231008 12.400741 164.283931 -53.618933 -2.954286 7.569004 26.285191 4.935746 1.193453 4.622224 0.401387 1.922591 7.299766 0.701907 6.123804 21.433492 2.869010 3.130289 18.194382 2.222151 5.026540 -2.019743 3.081419 6.491440 6.872648 6.606821 1.647237 -15.578640 -15.830676 -106.758740 -60.294746 142.770985 15.665876 -2.698989 -1.290083 -9.616633 4.030897 -0.564428 -2.321589 -11.838471 17.122066 121.248094 -68.322491 -150.361964 4.668947 1.248257 -18.064403 -4.733398 -6.609926 10.453877 -26.754712 73.825676 -24.602039 0.910664 -13.082061 -2.386989 -0.357347 0.787149 -0.162528 -2.828534 -13.300812 0.831299 14.031803 61.913236 7.644962 -3.082100 -4.686534 0.408737 -0.365469 -0.759701 -0.166477
-67.080520 63.231452 12.400747 164.292756 -53.627780 -2.955704 7.564875 26.293199 4.936006 1.199906 4.617547 0.414128 1.915944 7.302273 0.696034 6.119194 21.434876 2.869907 3.124719 18.197122 2.212385 5.028759 -2.031383 3.058303 6.503223 6.869205 6.593201 1.647974 -15.581469 -15.821005 -106.727469 -60.304643 142.732789 15.633624 -2.694284 -1.268394 -9.620842 4.028647 -0.569327 -2.325110 -11.839710 17.124898 121.215423 -68.326865 -150.328142 4.668783 1.255277 -18.080107 -4.728880 -6.602697 10.456317 -26.800785 73.821483 -24.644149 0.898773 -13.083322 -2.384195 -0.344368 0.786898 -0.158352 -2.820869 -13.288114 0.829760 14.025231 61.908837 7.633908 -3.086521 -4.687991 0.422958 -0.384555 -0.754945 -0.169817
-67.080811 63.232199 12.400392 164.293123 -53.637248 -2.947005 7.562854 26.301524 4.931049 1.198226 4.614946 0.417757 1.915138 7.302733 0.696089 6.117842 21.437616 2.866879 3.124482 18.192245 2.205020 5.027001 -2.046661 3.019692 6.529189 6.858988 6.582320 1.644834 -15.590573 -15.794890 -106.684063 -60.332635 142.678801 15.622074 -2.699025 -1.261733 -9.622500 4.026828 -0.568780 -2.327006 -11.838884 17.124067 121.187396 -68.345726 -150.307551 4.669896 1.253209 -18.078577 -4.724769 -6.593178 10.451238 -26.819354 73.815691 -24.670610 0.911481 -13.083528 -2.369996 -0.357119 0.789640 -0.164920 -2.805168 -13.275500 0.827750 14.019456 61.904217 7.624078 -3.113728 -4.678025 0.438171 -0.388021 -0.759652 -0.172956
-67.081155 63.232675 12.400442 164.292414 -53.642822 -2.939774 7.559764 26.301491 4.931262 1.196421 4.618747 0.415374 1.914290 7.303141 0.695975 6.118449 21.437764 2.865051 3.123759 18.186524 2.196557 5.025646 -2.041794 3.019818 6.540280 6.855499 6.574545 1.643517 -15.592233 -15.784289 -106.604541 -60.329524 142.611276 15.636842 -2.704441 -1.255730 -9.625441 4.018770 -0.563974 -2.327733 -11.831834 17.117870 121.168005 -68.359837 -150.287903 4.673309 1.241886 -18.076706 -4.722307 -6.587949 10.445323 -26.819222 73.815116 -24.672837 0.915925 -13.085306 -2.367049 -0.362261 0.792205 -0.165373 -2.786918 -13.268474 0.829059 14.008604 61.902198 7.613607 -3.148982 -4.664955 0.452171 -0.376943 -0.767670 -0.175519
-67.080993 63.233477 12.400736 164.294020 -53.648642 -2.940180 7.555942 26.305162 4.935656 1.197763 4.620778 0.410963 1.913933 7.303274 0.695923 6.110386 21.436499 2.875904 3.115728 18.178381 2.172721 5.031007 -2.044053 2.997283 6.552217 6.856195 6.555967 1.650953 -15.596191 -15.777453 -106.589811 -60.337488 142.585354 15.619895 -2.703284 -1.235624 -9.617572 4.010572 -0.571128 -2.323620 -11.836024 17.122726 121.103952 -68.366884 -150.230967 4.671546 1.234541 -18.078200 -4.716817 -6.582516 10.446148 -26.823829 73.813909 -24.675583 0.917592 -13.085491 -2.364073 -0.365031 0.792882 -0.165449 -2.770138 -13.258802 0.832576 13.981825 61.898498 7.594618 -3.163517 -4.660671 0.456336 -0.372067 -0.767777 -0.172384
